{"title":"KITEBOARDING - DVD P. CABRINHA.avi","uid":7355256,"size":471277056,"categoryP":"video","categoryS":"movies","magnet":"?xt=urn:btih:d7280f62c4725d19be7ea54bde3e6888f25ecf01&amp;dn=KITEBOARDING+-+DVD+P.+CABRINHA.avi&amp;tr=udp%3A%2F%2Ftracker.openbittorrent.com%3A80&amp;tr=udp%3A%2F%2Fopen.demonii.com%3A1337&amp;tr=udp%3A%2F%2Ftracker.coppersurfer.tk%3A6969&amp;tr=udp%3A%2F%2Fexodus.desync.com%3A6969","seeders":4,"leechers":1,"uploader":"JohnLucio","files":-1,"time":1339744289,"description":"See what happens when futuristic technology collides with the cutting edge world of surfing and kitesurfing. Metropolis takes you on a journey from the design trenches of the Cabrinha lab to the far corners of the earth to showcase how technology has taken surfing's next level......to the next level. Join Andre Phillip, Stav Niarchos, Marc Ramseier, Elliot Leboe, and Gianni Aragno as they island-hop their way from their private slider park in Antigua to sessions in Rarotonga, Cabarete, Fuerteventura, and Maui.\n\nFollow Pete Cabrinha out to Peahi (Jaws), Maui to surf the swell of the decade. Witness his record breaking ride on a 70 foot wave which landed him the prestigious Billabong XXL award and his entry into the Guinness Book of World Records for the largest wave ever ridden. Metropolis is filmed and edited in the same creative vein that produced many accolades for Elliot Leboe's first production - Ten 4.\n\n\nGeneral\nComplete name : H:MoviesKiteBoarding VideosKITEBOARDING - DVD P. CABRINHA.avi\nFormat : AVI\nFormat/Info : Audio Video Interleave\nFile size : 449 MiB\nDuration : 51mn 52s\nOverall bit rate : 1 212 Kbps\nVideo\nID : 0\nFormat : MPEG-4 Visual\nFormat settings, BVOP : Yes\nFormat settings, QPel : No\nFormat settings, GMC : No warppoints\nFormat settings, Matrix : Default (MPEG)\nMuxing mode : Packed bitstream\nCodec ID : DX50\nCodec ID/Hint : DivX 5\nDuration : 50mn 11s\nBit rate : 1 118 Kbps\nWidth : 624 pixels\nHeight : 384 pixels\nDisplay aspect ratio : 1.625\nFrame rate : 29.970 fps\nColor space : YUV\nChroma subsampling : 4:2:0\nBit depth : 8 bits\nScan type : Progressive\nBits/(Pixel*Frame) : 0.156\nStream size : 401 MiB (89%)\nTitle : Videostream\nWriting library : DivX 5.2.1 (DrDivX 106) (UTC 2004-09-08)\nAudio\nID : 1\nFormat : MPEG Audio\nFormat version : Version 1\nFormat profile : Layer 3\nMode : Joint stereo\nCodec ID : 55\nCodec ID/Hint : MP3\nDuration : 51mn 52s\nBit rate mode : Constant\nBit rate : 128 Kbps\nChannel(s) : 2 channels\nSampling rate : 48.0 KHz\nStream size : 46.0 MiB (10%)\nAlignment : Split accross interleaves\nInterleave, duration : 968 ms (29.00 video frames)\nTitle : Audiostream 1\n\n\nEnjoy and don't forget to comment and seed !","torrent":{"xt":"urn:btih:d7280f62c4725d19be7ea54bde3e6888f25ecf01","amp;dn":"KITEBOARDING+-+DVD+P.+CABRINHA.avi","amp;tr":["udp%3A%2F%2Ftracker.openbittorrent.com%3A80","udp%3A%2F%2Fopen.demonii.com%3A1337","udp%3A%2F%2Ftracker.coppersurfer.tk%3A6969","udp%3A%2F%2Fexodus.desync.com%3A6969"],"infoHash":"d7280f62c4725d19be7ea54bde3e6888f25ecf01","infoHashBuffer":{"type":"Buffer","data":[215,40,15,98,196,114,93,25,190,126,165,75,222,62,104,136,242,94,207,1]},"announce":[],"urlList":[]}}